<?xml version="1.0" encoding="UTF-8"?>
<!DOCTYPE svg PUBLIC "-//W3C//DTD SVG 1.0//EN" "http://www.w3.org/TR/2001/REC-SVG-20010904/DTD/svg10.dtd">
<svg xmlns="http://www.w3.org/2000/svg" xml:space="preserve" width="980px" height="820px" version="1.0" shape-rendering="geometricPrecision" text-rendering="geometricPrecision" image-rendering="optimizeQuality" fill-rule="evenodd" clip-rule="evenodd"
viewBox="0 0 406.3 339.96"
 xmlns:xlink="http://www.w3.org/1999/xlink">
 <g id="Capa_x0020_1">
  <g id="_105553338828192">
   <path fill="#200020" d="M146.24 305.39c16.31,0 37.15,3.15 52.18,-1.87 6.45,-19.32 -0.09,-128.27 2.35,-159.78 16.18,4.99 79.77,152.9 94.12,160.92 15.93,1.87 57.14,3.61 71.36,-1.14 1.09,-2.19 2.58,-7.16 2.56,-14.31l-0.6 -230.17c-0.01,-3.75 -1.25,-6.37 -1.96,-7.79 -11.21,-3.75 -39,-3.72 -50.33,-0.03 -0.99,3.03 -2.16,7.87 -2.14,14.06l0.37 127.5c0.03,9.62 -0.46,24.68 -10.15,7.04l-76.95 -140.07c-3.2,-5.82 -6.13,-9.25 -7.36,-9.87 -12.93,-1.05 -26.23,-0.46 -39.32,-0.51 -28.87,-0.1 -37.48,-4.47 -37.38,18l1.01 223.94c0.02,5.81 1.39,10.54 2.24,14.08z"/>
   <path fill="#ffffff" d="M48.55 104.4c11.77,3.93 44.22,3.93 55.99,0 7.55,-15.18 7.55,-37.97 0,-53.15 -7.86,-2.63 -47.26,-4.54 -53.77,-0.62 -8.77,5.27 -5.45,44.11 -2.22,53.77z"/>
  </g>
  <rect fill="none" width="406.3" height="339.96"/>
 </g>
</svg>
